<?xml version="1.0" encoding="UTF-8" standalone="no"?>
<svg
   xmlns:dc="http://purl.org/dc/elements/1.1/"
   xmlns:cc="http://creativecommons.org/ns#"
   xmlns:rdf="http://www.w3.org/1999/02/22-rdf-syntax-ns#"
   xmlns:svg="http://www.w3.org/2000/svg"
   xmlns="http://www.w3.org/2000/svg"
   xmlns:sodipodi="http://sodipodi.sourceforge.net/DTD/sodipodi-0.dtd"
   xmlns:inkscape="http://www.inkscape.org/namespaces/inkscape"
   version="1.1"
   id="svg2"
   xml:space="preserve"
   width="377.94666"
   height="377.94666"
   viewBox="0 0 377.94666 377.94666"
   sodipodi:docname="LOGO_MYBUBBLETEA.eps"><metadata
     id="metadata8"><rdf:RDF><cc:Work
         rdf:about=""><dc:format>image/svg+xml</dc:format><dc:type
           rdf:resource="http://purl.org/dc/dcmitype/StillImage" /></cc:Work></rdf:RDF></metadata><defs
     id="defs6" /><sodipodi:namedview
     pagecolor="#ffffff"
     bordercolor="#666666"
     borderopacity="1"
     objecttolerance="10"
     gridtolerance="10"
     guidetolerance="10"
     inkscape:pageopacity="0"
     inkscape:pageshadow="2"
     inkscape:window-width="640"
     inkscape:window-height="480"
     id="namedview4" /><g
     id="g10"
     inkscape:groupmode="layer"
     inkscape:label="ink_ext_XXXXXX"
     transform="matrix(1.3333333,0,0,-1.3333333,0,377.94667)"><g
       id="g12"
       transform="scale(0.1)"><path
         d="m 1041.26,2166.7 c 78.41,27.6 158.48,47.19 239.51,57.34 105.89,12.87 212.89,10.42 317.24,-8.45 33.03,-5.98 65.74,-13.68 98.07,-22.72 1.54,-0.43 2.51,-1.98 2.23,-3.56 l -25.18,-144.67 0.29,-0.12 c -11.3,-33.93 25.97,-81.06 85.66,-107.01 61.57,-26.76 123.49,-20.85 138.33,13.25 0.24,0.54 0.33,1.12 0.54,1.69 l 77.87,112.94 c 0.96,1.38 2.79,1.82 4.2,0.91 41.35,-26.69 96.76,-76.51 140.87,-115.82 7.3,-6.49 17.48,3.55 11.12,10.96 -39.28,45.78 -92.25,101.69 -132.41,133.57 -1.27,1 -1.48,2.75 -0.56,4.08 l 255.69,370.98 c 4.45,6.46 -2.67,14.31 -9.66,10.75 -55.2,-28.14 -149.2,-23.28 -256.8,16.02 -82.76,30.23 -163.62,111.29 -193.13,172.78 -4.98,10.36 -10.91,1.8 -13.55,-12.05 l -72.87,-408.52 c -0.31,-1.81 -2.12,-2.92 -3.88,-2.41 -31.94,9.45 -64.31,17.32 -97.07,23.27 -110.38,19.82 -224.63,18.87 -333.96,-3.52 -83.63,-16.8 -164.62,-45.83 -238.46,-86.54 -7.68,-4.24 -2.36,-16.06 5.91,-13.15"
         style="fill:#000000;fill-opacity:1;fill-rule:nonzero;stroke:none"
         id="path14" /><path
         d="M 849.57,1026.37 C 774.191,1015.92 721.551,946.352 731.996,871 c 10.426,-75.391 79.988,-128.051 155.375,-117.602 75.383,10.442 128.019,79.993 117.599,155.391 -10.45,75.359 -80.013,128.021 -155.4,117.581"
         style="fill:#000000;fill-opacity:1;fill-rule:nonzero;stroke:none"
         id="path16" /><path
         d="m 1087.09,738.102 c -40.36,-5.614 -68.54,-42.864 -62.96,-83.223 5.6,-40.34 42.83,-68.52 83.19,-62.938 40.36,5.579 68.55,42.829 62.94,83.188 -5.58,40.34 -42.81,68.551 -83.17,62.973"
         style="fill:#000000;fill-opacity:1;fill-rule:nonzero;stroke:none"
         id="path18" /><path
         d="m 1396.1,2011.19 c 33.67,39.6 28.9,99.01 -10.7,132.7 -39.61,33.66 -99.01,28.89 -132.7,-10.71 -33.69,-39.58 -28.9,-99 10.71,-132.7 39.6,-33.69 99,-28.89 132.69,10.71"
         style="fill:#000000;fill-opacity:1;fill-rule:nonzero;stroke:none"
         id="path20" /><path
         d="m 1565.91,2016.78 c 18.04,21.2 15.45,52.99 -5.75,71.04 -21.18,18.04 -52.99,15.48 -71.04,-5.72 -18.04,-21.21 -15.48,-53.02 5.75,-71.06 21.18,-18.02 52.99,-15.46 71.04,5.74"
         style="fill:#000000;fill-opacity:1;fill-rule:nonzero;stroke:none"
         id="path22" /><path
         d="m 1188.6,923.059 c -3.96,28.543 -30.29,48.461 -58.83,44.519 -28.54,-3.937 -48.46,-30.297 -44.52,-58.84 3.97,-28.508 30.3,-48.449 58.83,-44.508 28.54,3.961 48.46,30.29 44.52,58.829"
         style="fill:#000000;fill-opacity:1;fill-rule:nonzero;stroke:none"
         id="path24" /><path
         d="m 1793.51,2736.1 -0.26,-1.5 c 0.17,0.47 0.4,0.93 0.55,1.38 l -0.29,0.12"
         style="fill:#000000;fill-opacity:1;fill-rule:nonzero;stroke:none"
         id="path26" /><path
         d="m 1998.99,2528.16 c 132.62,-57.65 265.2,-58.43 295.76,11.85 30.56,70.3 -52.47,185.04 -185.1,242.72 -132.65,57.65 -275.49,39.98 -306.02,-30.3 -30.58,-70.3 62.73,-166.63 195.36,-224.27"
         style="fill:#000000;fill-opacity:1;fill-rule:nonzero;stroke:none"
         id="path28" /><path
         d="m 1546.31,1092.33 c 7.43,9.68 10.37,20.48 8.81,32.38 l -0.1,0.71 c -1.57,11.9 -7.19,21.56 -16.88,28.99 -9.42,7.24 -20.08,10.07 -31.98,8.5 l -261.22,-34.38 c -11.65,-1.54 -21.22,-7.03 -28.68,-16.47 -7.43,-9.72 -10.37,-20.5 -8.81,-32.39 l 0.1,-0.71 c 1.57,-11.92 7.19,-21.56 16.88,-29.02 9.66,-7.19 20.32,-10.01 31.98,-8.5 l 87.07,11.47 56.24,-427.148 c 1.57,-11.903 7.05,-21.442 16.48,-28.684 9.69,-7.43 20.49,-10.379 32.38,-8.808 l 0.72,0.089 c 11.89,1.571 21.56,7.2 28.99,16.891 7.24,9.422 10.06,20.078 8.5,31.98 l -56.25,427.15 87.09,11.47 c 11.89,1.56 21.44,7.05 28.68,16.48"
         style="fill:#000000;fill-opacity:1;fill-rule:nonzero;stroke:none"
         id="path30" /><path
         d="m 759.492,1952.61 c 4.676,-35.52 21.274,-64.16 49.785,-85.88 28.539,-21.92 60.594,-30.53 96.137,-25.86 28.227,3.73 48.695,11.76 61.352,24.08 l 0.281,-2.14 c 2.258,-17.21 -2.16,-33.07 -13.27,-47.56 -10.968,-14.08 -24.91,-22.24 -41.789,-24.47 -13.484,-1.79 -26.472,-0.05 -38.89,5.17 -12.25,5.08 -21.914,12.59 -28.989,22.49 -4.675,6.62 -10.851,10.96 -18.519,13.01 -3.918,0.95 -7.836,1.14 -11.754,0.64 -3.727,-0.5 -7.453,-1.62 -11.203,-3.37 l -1,-0.69 c -8.477,-4.18 -13.891,-11.14 -16.238,-20.85 -1.235,-4.32 -1.594,-8.52 -1.047,-12.61 0.64,-4.79 2.519,-9.42 5.629,-13.88 13.839,-20.04 32.265,-35.07 55.273,-45.04 23.574,-10.28 48.695,-13.66 75.336,-10.17 33.594,4.44 61.586,20.97 84.024,49.58 23.1,29.06 32.34,61.18 27.71,96.37 l -25.07,190.56 c -1.19,8.88 -5.4,16.1 -12.613,21.65 -6.887,5.6 -14.864,7.81 -23.934,6.6 l -0.519,-0.07 c -8.879,-1.16 -16.098,-5.37 -21.657,-12.61 -5.554,-7.24 -7.738,-15.29 -6.574,-24.17 l 9.926,-75.45 c 2.324,-17.59 -1.926,-33.4 -12.727,-47.49 -10.804,-14.07 -24.906,-22.24 -42.312,-24.54 -17.758,-2.36 -33.692,1.89 -47.746,12.67 -13.914,10.83 -22.008,25.05 -24.336,42.62 l -6.528,49.67 c -1.164,8.88 -5.367,16.1 -12.609,21.65 -7.238,5.56 -15.219,7.77 -23.91,6.63 l -0.805,-0.12 c -8.715,-1.14 -15.836,-5.34 -21.39,-12.58 -5.555,-7.22 -7.743,-15.29 -6.578,-24.17 l 6.554,-49.67"
         style="fill:#000000;fill-opacity:1;fill-rule:nonzero;stroke:none"
         id="path32" /><path
         d="m 338.398,1647.9 c 8.715,1.14 15.836,5.34 21.391,12.58 5.606,6.86 7.813,14.84 6.625,23.91 l -19.301,146.57 c -2.304,17.4 1.875,33.05 12.535,46.91 10.637,13.89 24.668,21.97 42.071,24.27 17.402,2.27 33.051,-1.91 46.914,-12.54 13.89,-10.64 21.965,-24.67 24.269,-42.1 l 13.34,-101.42 c 1.188,-9.07 5.391,-16.2 12.586,-21.4 7.242,-5.55 15.289,-7.74 24.168,-6.57 l 0.547,0.07 c 9.047,1.18 16.191,5.39 21.395,12.58 5.578,6.86 7.785,14.84 6.597,23.91 l -13.344,101.43 c -2.3,17.43 1.875,33.07 12.512,46.94 10.66,13.87 24.668,21.94 42.098,24.24 17.57,2.33 33.308,-1.85 47.176,-12.49 13.89,-10.64 21.961,-24.67 24.242,-42.09 l 7.429,-56.32 c 1.188,-9.05 5.391,-16.2 12.563,-21.39 6.887,-5.61 14.863,-7.79 23.93,-6.61 l 0.523,0.08 c 8.883,1.16 16.098,5.36 21.652,12.6 5.414,7.03 7.528,14.98 6.34,23.89 l -7.406,56.32 c -4.633,35.18 -21.133,63.72 -49.504,85.66 -28.348,21.75 -60.187,30.3 -95.543,25.64 -42.281,-5.58 -72.246,-23.79 -89.863,-54.65 -25.192,25.23 -58.93,35.06 -101.215,29.49 -35.352,-4.66 -63.914,-21.16 -85.664,-49.51 -21.723,-28.51 -30.273,-60.35 -25.641,-95.54 l 19.301,-146.56 c 1.188,-9.07 5.391,-16.19 12.582,-21.39 7.219,-5.56 15.195,-7.77 23.91,-6.61 l 0.785,0.1"
         style="fill:#000000;fill-opacity:1;fill-rule:nonzero;stroke:none"
         id="path34" /><path
         d="m 691.559,1109.73 c 28.086,36.61 39.152,77.63 33.168,123.08 -7.172,54.46 -30.653,93.12 -70.446,115.96 27.305,29.75 37.727,69.11 31.27,118.12 -5.696,43.3 -25.903,78.28 -60.637,104.92 -34.738,26.63 -73.863,37.1 -117.41,31.38 l -84.926,-11.18 c -27.59,-3.63 -49.976,-16.53 -67.168,-38.63 -17.144,-22.34 -23.887,-47.41 -20.207,-75.26 l 46.871,-356.14 c 3.633,-27.59 16.617,-49.96 38.985,-67.1 22.339,-17.17 47.293,-23.91 74.906,-20.28 l 84.93,11.19 c 45.679,6 82.55,27.32 110.664,63.94 z m -268.934,379.9 c -0.5,3.8 0.262,7.17 2.305,10.12 2.277,2.94 5.316,4.67 9.117,5.17 l 84.926,11.18 c 19.281,2.55 36.707,-2.18 52.328,-14.15 15.34,-11.77 24.289,-27.3 26.828,-46.58 2.566,-19.49 -2.039,-36.92 -13.816,-52.28 -11.801,-15.1 -27.469,-23.93 -46.965,-26.5 l -98.106,-13.29 z m 61.824,-367.61 c -3.797,-0.49 -7.168,0.27 -10.113,2.31 -2.707,2.3 -4.32,5.36 -4.82,9.16 l -18.801,142.74 98.148,12.92 c 21.629,2.85 41.078,-2.33 58.313,-15.55 16.976,-13.25 26.898,-30.7 29.75,-52.35 2.847,-21.66 -2.207,-41.08 -15.196,-58.27 -13.246,-17 -30.699,-26.92 -52.351,-29.77 l -84.93,-11.19"
         style="fill:#000000;fill-opacity:1;fill-rule:nonzero;stroke:none"
         id="path36" /><path
         d="m 763.316,1281.09 c 6.247,-47.34 28.469,-85.68 66.696,-115.01 38.226,-29.34 81.129,-40.86 128.707,-34.59 47.341,6.22 85.691,28.45 115.031,66.69 29.33,38.23 40.89,81.01 34.64,128.36 l -25.69,195.19 c -1.56,11.89 -7.19,21.55 -16.9,28.98 -9.21,7.51 -19.87,10.48 -32.01,8.86 l -0.71,-0.09 c -11.92,-1.57 -21.56,-7.2 -29.01,-16.89 -7.433,-9.68 -10.379,-20.49 -8.808,-32.38 l 25.708,-195.19 c 3.09,-23.55 -2.47,-44.73 -16.69,-63.56 -14.483,-18.59 -33.499,-29.46 -57.053,-32.55 -23.813,-3.13 -45.11,2.42 -63.914,16.65 -18.614,14.48 -29.465,33.5 -32.575,57.05 l -16.593,126.14 c -1.571,11.9 -7.2,21.56 -16.883,28.99 -9.688,7.46 -20.371,10.4 -32.028,8.86 l -1.07,-0.14 c -11.656,-1.52 -21.203,-7.15 -28.633,-16.84 -7.457,-9.68 -10.379,-20.49 -8.808,-32.38 l 16.593,-126.15"
         style="fill:#000000;fill-opacity:1;fill-rule:nonzero;stroke:none"
         id="path38" /><path
         d="m 1210.86,1305.13 c 45.23,-34.69 96.16,-48.32 152.78,-40.86 56.61,7.45 102.38,33.92 137.31,79.42 34.9,45.49 48.62,96.56 41.17,153.18 -7.46,56.6 -33.93,102.38 -79.42,137.31 -45.49,34.9 -96.56,48.62 -153.19,41.17 -51.85,-6.82 -89.65,-23.91 -113.42,-51.24 l -18.25,138.82 c -1.57,11.9 -7.22,21.56 -16.91,28.99 -9.66,7.2 -20.32,10.05 -31.98,8.5 l -1.07,-0.14 c -11.66,-1.52 -21.2,-7.03 -28.68,-16.48 -7.43,-9.68 -10.38,-20.49 -8.81,-32.38 l 40.79,-309.75 c 7.69,-56.58 34.24,-102.09 79.68,-136.54 z m 30.96,236.43 c 20.04,26.11 46.47,41.33 79.3,45.65 32.6,4.3 61.95,-3.58 88.06,-23.62 26.12,-20.04 41.34,-46.46 45.66,-79.3 4.3,-32.6 -3.59,-61.95 -23.62,-88.06 -20.04,-26.12 -46.35,-41.31 -78.95,-45.61 -32.83,-4.32 -62.3,3.54 -88.42,23.58 -25.87,20.06 -40.95,46.39 -45.25,78.99 -4.32,32.83 3.42,62.27 23.22,88.37"
         style="fill:#000000;fill-opacity:1;fill-rule:nonzero;stroke:none"
         id="path40" /><path
         d="m 1959.62,1324.6 c 34.9,45.49 48.62,96.56 41.17,153.18 -7.46,56.61 -33.93,102.38 -79.42,137.31 -45.49,34.9 -96.56,48.62 -153.19,41.17 -51.85,-6.82 -89.65,-23.91 -113.42,-51.24 l -25.09,190.61 c -1.57,11.89 -7.2,21.55 -16.88,29.01 -9.67,7.19 -20.33,10.02 -31.98,8.5 l -1.07,-0.14 c -11.66,-1.55 -21.23,-7.05 -28.68,-16.5 -7.44,-9.69 -10.38,-20.49 -8.81,-32.36 l 47.6,-361.56 c 7.69,-56.58 34.24,-102.09 79.68,-136.54 45.23,-34.69 96.16,-48.32 152.78,-40.86 56.61,7.45 102.38,33.93 137.31,79.42 z m -69.73,52.54 c -20.04,-26.12 -46.35,-41.31 -78.95,-45.61 -32.83,-4.32 -62.3,3.54 -88.42,23.58 -25.87,20.06 -40.95,46.39 -45.25,78.99 -4.32,32.83 3.42,62.27 23.22,88.37 20.04,26.11 46.47,41.33 79.3,45.65 32.6,4.3 61.95,-3.58 88.06,-23.62 26.12,-20.04 41.34,-46.46 45.66,-79.3 4.3,-32.6 -3.58,-61.94 -23.62,-88.06"
         style="fill:#000000;fill-opacity:1;fill-rule:nonzero;stroke:none"
         id="path42" /><path
         d="m 2070.6,1344.08 c 9.69,-7.43 20.37,-10.38 32.03,-8.86 l 1.07,0.14 c 11.66,1.55 21.2,7.15 28.63,16.84 7.5,9.21 10.45,19.89 8.86,32.03 l -62.02,471.05 c -1.56,11.9 -7.19,21.56 -16.88,28.99 -9.66,7.19 -20.32,10.04 -31.98,8.5 l -1.07,-0.14 c -11.66,-1.54 -21.22,-7.03 -28.68,-16.48 -7.45,-9.69 -10.38,-20.49 -8.81,-32.38 l 62.02,-471.06 c 1.59,-12.13 7.19,-21.68 16.83,-28.63"
         style="fill:#000000;fill-opacity:1;fill-rule:nonzero;stroke:none"
         id="path44" /><path
         d="m 2556.11,1615.33 c -1.09,8.33 -4.87,15.95 -11.35,22.84 -10.42,11.2 -23.03,15.83 -37.77,13.91 -20.68,-2.73 -33.22,-14.32 -37.54,-34.71 -5.01,-24.39 -16.67,-45.28 -34.95,-62.7 -18.73,-17.72 -40.81,-28.24 -66.26,-31.58 -38.3,-5.06 -68,2.66 -89.09,23.12 10.93,7.01 48.06,30.16 111.38,69.47 51.02,31.65 92.19,57.15 123.53,76.53 10.52,6.48 17.05,15.55 19.64,27.28 1.23,5.24 1.54,10.35 0.88,15.36 -0.81,6.17 -3.04,12.06 -6.67,17.64 -20.9,33.55 -49.53,59.05 -85.95,76.52 -36.73,17.93 -75.55,24.19 -116.48,18.81 -56.63,-7.46 -102.38,-33.93 -137.28,-79.45 -34.93,-45.49 -48.65,-96.56 -41.2,-153.16 7.46,-56.63 33.93,-102.4 79.42,-137.3 45.49,-34.91 96.56,-48.65 153.19,-41.2 44.25,5.84 82.5,24.05 114.77,54.68 31.91,29.63 52.21,65.7 60.9,108.22 1.21,5.48 1.5,10.73 0.83,15.72 z m -321.55,10.33 c -4.32,32.81 3.42,62.27 23.23,88.37 20.03,26.09 46.46,41.31 79.29,45.63 36.64,4.84 65.13,-2.07 85.5,-20.68 l -187.68,-115.84 -0.34,2.52"
         style="fill:#000000;fill-opacity:1;fill-rule:nonzero;stroke:none"
         id="path46" /><path
         d="m 1614.95,599.578 c 45.49,-34.898 96.56,-48.637 153.18,-41.187 44.26,5.839 82.51,24.05 114.78,54.679 31.91,29.629 52.21,65.7 60.9,108.219 1.21,5.481 1.49,10.731 0.83,15.723 -1.09,8.328 -4.87,15.949 -11.35,22.84 -10.42,11.199 -23.03,15.828 -37.78,13.91 -20.68,-2.731 -33.21,-14.321 -37.53,-34.711 -5.01,-24.391 -16.67,-45.281 -34.95,-62.711 -18.74,-17.711 -40.82,-28.231 -66.27,-31.57 -38.3,-5.059 -68,2.66 -89.08,23.121 10.92,7.007 48.05,30.16 111.38,69.468 51.02,31.653 92.19,57.153 123.53,76.532 10.52,6.48 17.05,15.55 19.63,27.277 1.24,5.242 1.55,10.352 0.88,15.363 -0.81,6.168 -3.04,12.059 -6.67,17.641 -20.89,33.547 -49.53,59.047 -85.95,76.519 -36.73,17.93 -75.55,24.188 -116.48,18.797 -56.62,-7.449 -102.38,-33.918 -137.28,-79.437 -34.92,-45.492 -48.65,-96.563 -41.19,-153.16 7.45,-56.629 33.93,-102.403 79.42,-137.313 z m 31.36,236.133 c 20.04,26.09 46.47,41.309 79.3,45.629 36.64,4.84 65.13,-2.07 85.5,-20.68 l -187.69,-115.84 -0.33,2.512 c -4.32,32.816 3.42,62.277 23.22,88.379"
         style="fill:#000000;fill-opacity:1;fill-rule:nonzero;stroke:none"
         id="path48" /><path
         d="m 2347.6,1010.79 c -7.46,56.62 -33.93,102.4 -79.42,137.3 -45.52,34.93 -96.56,48.65 -153.19,41.2 -56.63,-7.46 -102.38,-33.93 -137.3,-79.42 -34.9,-45.52 -48.63,-96.57 -41.2,-153.19 7.46,-56.629 33.95,-102.399 79.45,-137.309 45.49,-34.902 96.56,-48.621 153.18,-41.16 51.62,6.789 89.09,26.348 112.43,58.711 1.59,-12.133 7.21,-21.684 16.83,-28.633 9.69,-7.437 20.37,-10.398 32.03,-8.859 l 1.07,0.14 c 11.65,1.52 21.2,7.149 28.63,16.84 7.5,9.211 10.47,19.891 8.86,32.031 z m -111,-99.911 c -19.85,-25.859 -46.18,-40.93 -78.99,-45.25 -32.84,-4.32 -62.3,3.41 -88.37,23.211 -25.88,20.07 -40.98,46.519 -45.3,79.351 -4.3,32.579 3.46,61.929 23.26,88.019 20.04,26.09 46.47,41.33 79.31,45.65 32.57,4.28 61.94,-3.58 88.06,-23.62 26.09,-20.04 41.31,-46.37 45.61,-78.939 4.32,-32.84 -3.54,-62.332 -23.58,-88.422"
         style="fill:#000000;fill-opacity:1;fill-rule:nonzero;stroke:none"
         id="path50" /><path
         d="M 2038.93,561.879 C 1940.42,495.82 1833.6,444.59 1721.52,412.871 c -77.17,-20.769 -155.95,-35.32 -235.16,-37.473 -79.62,-3.367 -158.75,2.024 -236.56,18.551 -78.26,14.321 -153.55,39.16 -225.91,72.621 C 951.348,498.488 884.039,541.891 820.449,590.289 715.844,672.18 627.227,774.98 555.973,890.52 c 0,0 -12.621,26.359 -18.817,11.96 l 32.403,-131.839 69.957,-281.332 0.129,-0.52 0.164,-0.43 C 658.406,439 683.324,387.07 711.758,343.621 740.184,300.309 773.277,259.949 810.414,223.602 884.238,150.461 974.438,93.3516 1072.82,58.6719 c 49.15,-17.2813 100.1,-29.7813 151.77,-35.8828 51.64,-6.8985 104.63,-7.2188 156.46,-0.4375 103.96,13.207 203.11,53.5468 289.16,111.4104 42.83,29.5 82.81,69.316 118.36,107.968 l 99.42,116.622 155.66,182.839 c 15.65,19.77 -4.72,20.688 -4.72,20.688 z M 1872.24,372.07 1771.5,257.441 c -34.61,-35.359 -74.8,-66.492 -116.74,-93.48 -83.52,-54.902 -178.8,-92.3204 -277.5,-103.8008 -49.35,-5.9102 -99.14,-5.1211 -148.47,1.9882 -49.4,6.8399 -98.35,17.211 -145.44,33.5625 C 893.938,159.262 739.965,313.02 659.563,495.219 l -73.067,279.742 -13.726,51.98 C 626.855,723.98 700.141,629.988 788.934,552.129 c 62.836,-55.43 133.507,-102.5 209.347,-139.879 75.379,-36.98 156.659,-64.328 239.259,-80.488 82.6,-16.293 168.14,-21.891 251.93,-16.16 84.36,5.859 167.56,22.687 246.72,50.199 84.46,29.09 164.18,70.129 236.58,120.75 L 1872.24,372.07"
         style="fill:#000000;fill-opacity:1;fill-rule:nonzero;stroke:none"
         id="path52" /></g></g></svg>
